<svg xmlns="http://www.w3.org/2000/svg" viewBox="0 0 1200 630">
  <defs>
    <linearGradient id="bgG" x1="0%" y1="0%" x2="100%" y2="100%">
      <stop offset="0%" stop-color="#1a1220"/>
      <stop offset="100%" stop-color="#0f172a"/>
    </linearGradient>
    <linearGradient id="obG" x1="0%" y1="0%" x2="100%" y2="100%">
      <stop offset="0%" stop-color="#fb923c"/>
      <stop offset="100%" stop-color="#6ee7b7"/>
    </linearGradient>
    <radialGradient id="glR" cx="30%" cy="50%" r="45%">
      <stop offset="0%" stop-color="#10b981" stop-opacity="0.08"/>
      <stop offset="100%" stop-color="#10b981" stop-opacity="0"/>
    </radialGradient>
  </defs>

  <rect width="1200" height="630" fill="url(#bgG)"/>
  <ellipse cx="350" cy="315" rx="400" ry="320" fill="url(#glR)"/>

  <rect x="0" y="0" width="1200" height="3" fill="url(#obG)"/>
  <rect x="0" y="627" width="1200" height="3" fill="url(#obG)" opacity="0.4"/>

  <!-- Spark icon -->
  <g transform="translate(100, 280)">
    <circle cx="0" cy="0" r="18" fill="#f97316"/>
    <path d="M0 -28 L3 -8 L0 0 L-3 -8Z" fill="#fb923c" opacity=".85"/>
    <circle cx="28" cy="-22" r="4" fill="#fb923c" opacity=".5"/>
    <circle cx="-24" cy="18" r="3" fill="#fbbf24" opacity=".4"/>
    <circle cx="30" cy="14" r="2.5" fill="#6ee7b7" opacity=".35"/>
  </g>

  <!-- Flame icon (SVG drawn) -->
  <g transform="translate(600, 160)">
    <path d="M0 70 C-25 55, -55 30, -55 -10 C-55 -35, -38 -48, -25 -40 C-30 -55, -18 -70, 0 -65 C18 -70, 30 -55, 25 -40 C38 -48, 55 -35, 55 -10 C55 30, 25 55, 0 70Z" fill="#f97316" opacity=".6"/>
    <path d="M0 65 C-15 55, -35 35, -35 5 C-35 -15, -15 -25, 0 -12 C15 -25, 35 -15, 35 5 C35 35, 15 55, 0 65Z" fill="#fb923c" opacity=".5"/>
    <path d="M0 58 C-10 50, -22 35, -22 15 C-22 0, -8 -8, 0 2 C8 -8, 22 0, 22 15 C22 35, 10 50, 0 58Z" fill="#fbbf24" opacity=".6"/>
    <text x="0" y="40" text-anchor="middle" font-family="'DM Sans',system-ui" font-size="36" font-weight="900" fill="#fff" opacity=".8">7</text>
  </g>

  <text x="600" y="330" text-anchor="middle" font-family="'Hiragino Sans','Noto Sans JP',sans-serif" font-size="64" font-weight="800" fill="#f1f5f9" letter-spacing="-1">習慣トラッカー</text>
  <text x="600" y="400" text-anchor="middle" font-family="'Hiragino Sans','Noto Sans JP',sans-serif" font-size="24" fill="#94a3b8" letter-spacing="1">レベルアップ・バッジ・連続記録で継続サポート</text>
  <text x="600" y="470" text-anchor="middle" font-family="'DM Sans','Helvetica Neue',sans-serif" font-size="22" fill="#fb923c" font-weight="700" letter-spacing="0.5">Somirai Lab</text>

  <g transform="translate(600, 510)">
    <rect x="-230" y="0" width="120" height="36" rx="18" fill="#1a1220" stroke="#f97316" stroke-width="1" stroke-opacity=".3"/>
    <text x="-170" y="24" text-anchor="middle" font-family="sans-serif" font-size="14" fill="#fb923c" font-weight="600">無料</text>
    <rect x="-95" y="0" width="190" height="36" rx="18" fill="#1a1220" stroke="#f97316" stroke-width="1" stroke-opacity=".3"/>
    <text x="0" y="24" text-anchor="middle" font-family="sans-serif" font-size="14" fill="#fbbf24" font-weight="600">ゲーミフィケーション</text>
    <rect x="110" y="0" width="120" height="36" rx="18" fill="#1a1220" stroke="#f97316" stroke-width="1" stroke-opacity=".3"/>
    <text x="170" y="24" text-anchor="middle" font-family="sans-serif" font-size="14" fill="#6ee7b7" font-weight="600">PWA対応</text>
  </g>
</svg>
